<svg width="96" height="96" viewBox="0 0 96 96" fill="none" xmlns="http://www.w3.org/2000/svg">
<g clip-path="url(#clip0_23_4)">
<rect width="96" height="96" rx="16" fill="url(#paint0_linear_23_4)"/>
<path d="M71.9888 25.2421C72.3673 24.8488 72.819 24.5364 73.3175 24.3231C73.816 24.1099 74.3512 24 74.8919 24C75.4326 24 75.9679 24.1099 76.4664 24.3231C76.9649 24.5364 77.4166 24.8488 77.795 25.2421C79.3811 26.8742 79.4033 29.5115 77.8505 31.1719L45.0596 70.6476C44.6873 71.064 44.2355 71.3986 43.7318 71.631C43.2282 71.8634 42.6833 71.9887 42.1304 71.9993C41.5776 72.0098 41.0284 71.9054 40.5166 71.6925C40.0047 71.4795 39.5409 71.1624 39.1535 70.7606L19.2006 50.1699C18.4311 49.3707 18 48.2961 18 47.1768C18 46.0575 18.4311 44.9828 19.2006 44.1836C19.579 43.7904 20.0307 43.478 20.5292 43.2647C21.0277 43.0514 21.563 42.9416 22.1037 42.9416C22.6444 42.9416 23.1796 43.0514 23.6781 43.2647C24.1766 43.478 24.6283 43.7904 25.0068 44.1836L41.9319 61.6512L71.8779 25.3663L71.9888 25.2421Z" fill="#EEEEEE"/>
</g>
<defs>
<linearGradient id="paint0_linear_23_4" x1="0" y1="48" x2="96" y2="48" gradientUnits="userSpaceOnUse">
<stop stop-color="#29BEE3"/>
<stop offset="1" stop-color="#403EFB"/>
</linearGradient>
<clipPath id="clip0_23_4">
<rect width="96" height="96" fill="white"/>
</clipPath>
</defs>
</svg>
